<?xml version="1.0" standalone="no"?>
<!DOCTYPE svg PUBLIC "-//W3C//DTD SVG 20010904//EN"
 "http://www.w3.org/TR/2001/REC-SVG-20010904/DTD/svg10.dtd">
<svg version="1.0" xmlns="http://www.w3.org/2000/svg"
 width="1000.000000pt" height="1000.000000pt" viewBox="0 0 1000.000000 1000.000000"
 preserveAspectRatio="xMidYMid meet">
<metadata>
Created by potrace 1.14, written by Peter Selinger 2001-2017
</metadata>
<g transform="translate(0.000000,1000.000000) scale(0.100000,-0.100000)"
fill="#000000" stroke="none">
<path d="M6560 8392 c-21 -10 -42 -32 -54 -55 -34 -72 -6 -153 111 -317 238
-332 459 -814 557 -1213 58 -235 78 -387 79 -597 0 -107 -4 -205 -9 -217 -9
-21 -14 -16 -62 57 -117 177 -273 336 -450 458 -163 112 -416 222 -586 253
-60 11 -69 16 -83 43 -37 73 -119 182 -187 250 -161 161 -375 269 -611 309
l-80 13 -8 90 c-11 129 -40 236 -92 339 -25 50 -45 98 -45 108 0 26 -37 57
-68 57 -35 0 -62 -28 -62 -64 0 -25 7 -34 76 -94 44 -38 114 -277 114 -389 l0
-33 -86 0 c-88 0 -137 -6 -323 -42 -88 -17 -196 -47 -262 -73 -11 -4 -23 6
-41 32 -36 55 -117 135 -187 187 -64 47 -179 106 -207 106 -9 0 -25 11 -36 25
-24 31 -66 33 -96 5 -28 -27 -28 -64 1 -90 18 -18 31 -21 66 -17 52 6 97 -11
195 -73 59 -37 216 -190 216 -210 0 -4 -24 -22 -53 -38 -76 -43 -196 -142
-255 -210 -110 -127 -180 -259 -231 -434 -34 -118 -39 -190 -15 -257 l15 -44
-50 -101 c-27 -56 -59 -127 -71 -158 -12 -32 -25 -58 -29 -58 -4 0 -56 36
-117 81 -346 256 -702 460 -1019 583 -66 26 -128 51 -137 56 -28 16 -70 12
-105 -10 -70 -42 -31 -120 96 -195 l51 -30 0 -1596 0 -1596 -68 -12 c-150 -27
-282 -121 -350 -249 -37 -69 -42 -70 -110 -31 -42 24 -59 24 -72 -2 -17 -31
-7 -45 61 -79 l62 -32 -7 -46 c-4 -26 -9 -73 -13 -104 l-6 -58 -71 0 c-93 -1
-130 -27 -92 -66 10 -10 38 -14 89 -14 l75 0 7 -47 c4 -26 16 -76 27 -112 l20
-64 -54 -48 c-29 -27 -56 -48 -60 -49 -12 0 -9 -35 4 -48 21 -21 45 -13 100
32 l53 43 60 -62 c102 -105 220 -155 365 -155 153 0 284 64 377 186 l34 45 64
-46 c67 -47 83 -53 103 -33 23 23 12 48 -35 81 -25 17 -57 41 -70 52 l-23 20
19 65 c11 36 25 86 32 112 l13 47 70 3 c76 3 102 21 80 56 -9 13 -27 18 -82
20 l-71 3 -11 57 c-6 31 -13 67 -16 80 -4 20 5 26 71 57 78 35 96 55 75 80
-17 21 -37 19 -105 -9 l-59 -24 -28 67 c-60 142 -164 234 -302 267 l-76 18 0
1573 c0 1221 3 1573 12 1573 29 0 405 -218 608 -353 143 -95 427 -304 448
-329 10 -12 8 -34 -8 -114 -27 -134 -50 -332 -50 -426 0 -78 0 -79 -80 -238
-88 -175 -104 -233 -76 -275 22 -33 46 -32 98 5 24 16 55 32 69 35 25 6 26 5
46 -90 l20 -97 -103 -141 c-206 -284 -216 -304 -176 -340 42 -38 70 -24 236
125 60 54 112 98 116 98 4 0 23 -39 43 -87 50 -121 148 -294 232 -410 69 -95
248 -286 335 -357 l45 -37 -85 6 c-380 26 -535 47 -878 115 -264 53 -329 59
-409 35 -70 -21 -103 -61 -103 -123 0 -84 57 -146 290 -316 299 -219 657 -415
959 -526 l73 -27 -45 -27 c-56 -32 -77 -60 -77 -102 0 -23 8 -39 27 -54 26
-20 35 -22 112 -16 121 9 166 23 200 61 16 18 30 38 33 45 2 8 25 6 83 -8 212
-54 447 -88 664 -99 134 -6 135 -6 160 -36 l25 -30 108 6 c115 7 165 22 201
60 18 20 42 28 127 42 616 102 1261 428 1781 898 505 457 838 1116 935 1852
22 165 25 608 6 770 -113 927 -596 1731 -1372 2285 -309 221 -466 285 -570
232z m245 -122 c113 -57 311 -192 460 -315 412 -338 725 -751 924 -1218 282
-661 326 -1425 121 -2120 -86 -292 -206 -549 -378 -810 -316 -483 -923 -951
-1562 -1205 -191 -76 -469 -152 -651 -177 -45 -6 -47 -5 -57 25 -6 16 -22 41
-36 54 -20 18 -30 45 -46 120 -30 148 -45 306 -34 362 l9 49 60 2 c715 28
1392 453 1709 1073 245 479 269 956 76 1505 -18 50 -36 98 -42 108 -5 10 -11
156 -12 325 -3 254 -7 331 -25 447 -39 257 -129 575 -232 826 -103 252 -276
567 -418 764 -32 44 -66 96 -76 115 -21 41 -23 108 -4 122 29 19 113 -1 214
-52z m-1709 -974 c1 0 -1 -15 -3 -32 l-5 -31 -97 -7 c-309 -20 -573 -119 -760
-284 -98 -86 -208 -285 -246 -444 -8 -35 -15 -110 -15 -169 0 -103 1 -107 28
-134 15 -15 44 -39 65 -53 55 -36 38 -38 -32 -3 -189 96 -222 258 -107 531 74
174 232 359 385 450 69 41 72 42 86 24 8 -11 15 -22 15 -26 0 -14 37 -8 50 7
7 9 10 27 7 44 -6 26 -3 31 31 44 46 18 169 52 245 67 105 21 339 32 353 16z
m310 -51 c94 -31 281 -121 271 -132 -2 -2 -35 10 -74 26 -82 34 -271 80 -363
90 -36 3 -64 9 -62 14 1 4 2 18 2 30 0 23 1 24 58 15 31 -4 107 -24 168 -43z
m-267 -551 c50 -35 65 -125 31 -181 -37 -61 -106 -50 -136 22 -26 63 -15 121
30 157 27 22 45 22 75 2z m1186 -67 c39 -14 83 -30 98 -38 31 -14 31 -23 2
-93 -14 -32 -20 -37 -38 -31 -12 4 -30 8 -40 9 -10 1 -22 7 -25 13 -9 13 -116
53 -142 53 -11 0 -20 5 -20 12 0 6 -3 9 -6 6 -3 -4 0 -17 7 -30 11 -20 10 -22
-3 -10 -13 10 -17 9 -22 -10 -5 -15 -9 -18 -13 -10 -3 7 0 18 5 25 7 8 8 36 2
82 -5 39 -9 73 -10 77 0 8 103 -20 205 -55z m-2061 27 c39 -39 52 -94 36 -145
-21 -64 -70 -87 -117 -54 -27 19 -53 70 -53 105 0 54 50 120 91 120 9 0 28
-12 43 -26z m-1849 -94 c16 -6 25 -17 25 -30 0 -21 0 -21 -41 2 -22 12 -46 29
-52 37 -10 12 -8 13 15 8 15 -4 39 -12 53 -17z m4220 -85 c194 -122 364 -291
494 -489 28 -43 51 -84 51 -91 0 -7 -21 -20 -47 -29 -56 -19 -42 -30 -138 110
-82 120 -276 314 -397 398 -54 37 -98 73 -98 80 0 27 22 76 34 76 7 0 52 -25
101 -55z m-4113 13 c-8 -8 -9 -4 -5 13 4 13 8 18 11 10 2 -7 -1 -18 -6 -23z
m3695 6 c-3 -3 -12 -4 -19 -1 -8 3 -5 6 6 6 11 1 17 -2 13 -5z m-3152 -254
c423 -255 895 -641 1302 -1065 150 -157 177 -190 203 -245 4 -8 16 -17 27 -20
11 -3 34 -21 51 -41 26 -29 29 -38 17 -43 -22 -8 -19 -53 5 -66 14 -8 26 -8
41 1 25 13 15 23 140 -131 202 -247 392 -517 429 -608 14 -35 17 -113 5 -131
-19 -31 -80 7 -122 76 -16 27 -60 100 -98 163 -399 669 -931 1250 -1615 1765
-205 154 -601 409 -732 471 -33 15 -38 22 -38 51 l0 32 133 -68 c72 -38 186
-101 252 -141z m3321 182 c-17 -16 -18 -16 -5 5 7 12 15 20 18 17 3 -2 -3 -12
-13 -22z m-231 -104 c5 4 5 1 1 -6 -6 -10 -11 -10 -22 -1 -8 6 -14 14 -14 16
0 3 6 0 13 -6 8 -6 18 -7 22 -3z m45 -58 c0 -5 -2 -10 -4 -10 -3 0 -8 5 -11
10 -3 6 -1 10 4 10 6 0 11 -4 11 -10z m43 -40 c3 6 4 5 3 -2 -4 -19 -23 -20
-30 -2 -5 14 -4 15 8 5 10 -8 16 -9 19 -1z m94 -52 c-3 -7 -5 -2 -5 12 0 14 2
19 5 13 2 -7 2 -19 0 -25z m-2462 -215 c-27 -81 -50 -150 -52 -152 -1 -2 -24
13 -50 34 -27 21 -49 39 -51 40 -8 5 100 257 121 283 8 10 18 6 45 -22 l35
-35 -48 -148z m2435 186 c-7 -11 -14 -18 -17 -15 -3 3 0 12 7 21 18 21 23 19
10 -6z m45 -39 c-4 -12 -9 -19 -12 -17 -3 3 -2 15 2 27 4 12 9 19 12 17 3 -3
2 -15 -2 -27z m42 -2 c-3 -8 -6 -5 -6 6 -1 11 2 17 5 13 3 -3 4 -12 1 -19z
m13 -28 c0 -5 -2 -10 -4 -10 -3 0 -8 5 -11 10 -3 6 -1 10 4 10 6 0 11 -4 11
-10z m-10 -56 c0 5 10 -3 21 -18 12 -15 19 -29 16 -32 -3 -3 -10 4 -17 15 -6
12 -17 20 -23 19 -13 -3 -17 3 -17 25 0 8 4 7 10 -3 5 -8 10 -11 10 -6z m81
-61 c18 -27 24 -40 13 -31 -20 17 -59 78 -50 78 3 0 20 -21 37 -47z m-13 -58
c-3 -3 -9 2 -12 12 -6 14 -5 15 5 6 7 -7 10 -15 7 -18z m7 -25 c18 15 32 -7
16 -23 -9 -9 -11 -7 -6 8 7 20 6 20 -9 1 -9 -11 -16 -17 -16 -14 0 4 -2 12 -3
20 -2 7 -2 9 1 5 2 -4 10 -3 17 3z m95 -15 c11 -13 10 -14 -4 -9 -10 4 -16 1
-16 -7 0 -7 -2 -10 -5 -7 -5 5 4 38 10 38 1 0 8 -7 15 -15z m40 -30 c7 -9 8
-15 2 -15 -5 0 -12 7 -16 15 -3 8 -4 15 -2 15 2 0 9 -7 16 -15z m635 -45 c98
-190 184 -518 200 -770 11 -162 -25 -451 -68 -551 l-15 -34 4 35 c16 113 7
533 -11 579 -4 9 -8 34 -9 56 -3 47 -37 165 -48 165 -4 0 -8 13 -8 28 0 44
-31 127 -41 111 -6 -9 -6 -1 -2 20 4 24 3 32 -5 27 -8 -4 -10 -2 -6 8 3 8 -1
25 -10 38 -8 13 -14 25 -14 28 1 3 -7 23 -17 44 -16 33 -20 36 -26 20 -6 -15
-8 -13 -9 11 -1 17 -3 35 -5 40 -1 6 -3 15 -4 20 -1 6 -6 3 -12 -5 -8 -12 -9
-10 -4 9 5 17 4 22 -5 16 -9 -5 -11 -4 -6 4 4 6 -3 25 -15 42 -25 36 -21 41
46 67 68 27 72 26 90 -8z m-670 -10 c-3 -5 -12 -10 -18 -10 -7 0 -6 4 3 10 19
12 23 12 15 0z m-41 -8 c3 -5 -1 -9 -9 -9 -8 0 -12 4 -9 9 3 4 7 8 9 8 2 0 6
-4 9 -8z m536 -23 c0 -11 -27 -12 -34 -1 -2 4 4 9 15 9 10 1 19 -2 19 -8z
m-197 -6 c-7 -2 -19 -2 -25 0 -7 3 -2 5 12 5 14 0 19 -2 13 -5z m110 0 c-7 -2
-21 -2 -30 0 -10 3 -4 5 12 5 17 0 24 -2 18 -5z m-441 -25 c-7 -7 -12 -8 -12
-2 0 14 12 26 19 19 2 -3 -1 -11 -7 -17z m-312 -72 c0 -9 -95 -119 -173 -202
-42 -45 -73 -85 -69 -89 4 -5 2 -5 -5 -1 -14 8 -143 -120 -144 -143 0 -9 -3
-11 -5 -5 -3 6 -33 -16 -67 -50 -68 -68 -197 -171 -197 -158 0 12 555 593 597
625 32 24 63 35 63 23z m-2502 -67 c23 -20 42 -41 42 -46 0 -6 -16 -20 -35
-31 -21 -13 -44 -40 -60 -72 -23 -45 -28 -49 -45 -40 -11 6 -20 14 -20 18 0
17 21 141 31 184 12 54 9 54 87 -13z m2859 19 c-3 -8 -6 -5 -6 6 -1 11 2 17 5
13 3 -3 4 -12 1 -19z m103 -152 c0 -3 -4 -8 -10 -11 -5 -3 -10 -1 -10 4 0 6 5
11 10 11 6 0 10 -2 10 -4z m-2896 -33 c-7 -22 -177 -376 -184 -383 -6 -6 -25
-36 -46 -74 -33 -60 -86 -137 -90 -133 -4 3 232 491 280 580 17 30 49 38 40
10z m2919 -128 c-3 -9 -8 -14 -10 -11 -3 3 -2 9 2 15 9 16 15 13 8 -4z m584
-132 c-3 -10 -5 -4 -5 12 0 17 2 24 5 18 2 -7 2 -21 0 -30z m-590 -50 c-3 -10
-5 -2 -5 17 0 19 2 27 5 18 2 -10 2 -26 0 -35z m-2967 -147 l0 -83 -61 -27
c-33 -14 -62 -26 -65 -26 -2 0 -4 10 -4 22 0 22 109 198 123 198 4 0 7 -38 7
-84z m3190 -16 c-8 -5 -19 -10 -25 -10 -5 0 -3 5 5 10 8 5 20 10 25 10 6 0 3
-5 -5 -10z m50 6 c0 -2 -7 -7 -16 -10 -8 -3 -12 -2 -9 4 6 10 25 14 25 6z m80
-6 c0 -5 -17 -9 -37 -9 l-38 2 35 7 c19 4 36 8 38 9 1 0 2 -3 2 -9z m48 -11
c-2 -3 4 -14 12 -24 14 -17 14 -17 -8 -4 -12 8 -17 16 -11 18 8 2 7 7 -2 13
-11 8 -11 9 -1 6 8 -2 12 -6 10 -9z m-218 -36 c-1 -5 -17 -26 -37 -48 -42 -47
-41 -34 1 19 30 37 36 42 36 29z m-3135 -175 c3 -35 9 -70 11 -79 4 -13 -4
-18 -38 -22 -24 -3 -52 -7 -63 -9 -17 -3 -21 6 -31 60 -12 68 -14 65 46 94 61
29 67 25 75 -44z m3492 40 c-3 -8 -6 -5 -6 6 -1 11 2 17 5 13 3 -3 4 -12 1
-19z m-26 -44 c-5 -16 -10 -21 -10 -12 -1 18 10 51 15 45 2 -1 -1 -16 -5 -33z
m-682 -46 c-6 -11 -36 -31 -67 -45 -32 -13 -90 -40 -130 -59 -40 -19 -94 -43
-120 -53 -26 -10 -105 -48 -177 -84 -186 -93 -257 -125 -291 -132 -36 -8 37
33 391 217 259 136 381 191 398 181 4 -2 2 -13 -4 -25z m701 -16 c-6 -2 -10
-11 -10 -19 0 -9 -2 -14 -5 -11 -4 3 -3 18 1 33 5 20 9 23 15 13 5 -7 4 -14
-1 -16z m-424 -47 c0 -25 -3 -31 -9 -20 -7 13 -2 55 7 55 1 0 2 -16 2 -35z
m431 3 c-3 -8 -6 -5 -6 6 -1 11 2 17 5 13 3 -3 4 -12 1 -19z m-398 -48 c11
-24 11 -24 -3 -6 -9 11 -16 24 -16 30 0 12 5 7 19 -24z m-3103 -32 c4 -7 4
-10 -1 -6 -10 9 -26 -7 -58 -62 -14 -25 -37 -57 -51 -71 -14 -15 -22 -30 -19
-33 4 -3 2 -6 -3 -6 -6 0 -26 -21 -45 -46 -19 -25 -47 -56 -64 -67 -27 -20
-25 -15 20 48 173 245 202 276 221 243z m2967 -28 c3 -11 1 -18 -4 -14 -5 3
-9 12 -9 20 0 20 7 17 13 -6z m213 -15 c17 -13 16 -14 -13 -4 -34 11 -42 19
-20 19 7 0 22 -7 33 -15z m122 -22 c-10 -2 -28 -2 -40 0 -13 2 -5 4 17 4 22 1
32 -1 23 -4z m69 -9 c-3 -3 -12 -4 -19 -1 -8 3 -5 6 6 6 11 1 17 -2 13 -5z
m186 -64 c-3 -12 -8 -19 -11 -16 -5 6 5 36 12 36 2 0 2 -9 -1 -20z m-3470 -81
c10 -28 17 -52 15 -54 -2 -2 -25 10 -51 27 l-48 31 28 23 c15 13 30 23 33 24
3 0 13 -23 23 -51z m2848 18 c-10 -9 -11 -8 -5 6 3 10 9 15 12 12 3 -3 0 -11
-7 -18z m-2744 -237 c59 -101 260 -346 412 -504 209 -214 380 -330 601 -410
111 -40 123 -47 70 -40 -93 13 -228 54 -335 101 l-110 49 3 36 c4 44 -15 54
-63 34 -33 -14 -35 -13 -92 26 -203 142 -372 324 -508 547 -54 88 -135 246
-135 262 0 4 31 -9 69 -29 47 -25 74 -47 88 -72z m2668 -25 c0 -35 -9 -46 -18
-22 -4 11 8 57 15 57 2 0 3 -16 3 -35z m550 15 c-3 -5 -1 -19 5 -30 6 -11 8
-20 6 -20 -10 0 -27 41 -21 50 3 6 8 10 11 10 3 0 2 -4 -1 -10z m49 -2 c-3 -5
-10 -5 -16 -2 -8 5 -9 1 -4 -12 5 -14 4 -16 -5 -7 -14 14 -6 30 15 30 8 0 13
-4 10 -9z m-77 -74 c-3 -3 -12 -4 -19 -1 -8 3 -5 6 6 6 11 1 17 -2 13 -5z
m-347 -48 c0 -2 -7 -9 -15 -16 -13 -11 -14 -10 -9 4 5 14 24 23 24 12z m-91
-35 c10 -7 7 -9 -12 -8 -14 1 -23 5 -20 10 6 9 15 9 32 -2z m51 6 c0 -2 -15
-16 -32 -33 l-33 -29 29 33 c28 30 36 37 36 29z m-70 -72 c0 -1 -10 -10 -22
-21 -14 -12 -18 -13 -10 -3 6 9 10 18 7 21 -3 2 2 5 10 5 8 0 15 -1 15 -2z
m-47 -59 c-3 -4 -9 -2 -14 5 -13 22 -11 31 5 17 8 -7 12 -17 9 -22z m-143 -12
c0 -8 -19 -13 -24 -6 -3 5 1 9 9 9 8 0 15 -2 15 -3z m97 -46 c-3 -8 -6 -5 -6
6 -1 11 2 17 5 13 3 -3 4 -12 1 -19z m-143 -12 c-3 -9 -10 -16 -15 -16 -5 0
-4 9 3 20 14 22 21 20 12 -4z m-40 -102 c3 -8 2 -12 -4 -9 -6 3 -10 10 -10 16
0 14 7 11 14 -7z m-49 -34 c-3 -5 -11 -10 -16 -10 -6 0 -7 5 -4 10 3 6 11 10
16 10 6 0 7 -4 4 -10z m222 -77 c-3 -10 -5 -4 -5 12 0 17 2 24 5 18 2 -7 2
-21 0 -30z m-299 -12 c-13 -15 -25 -27 -26 -25 -6 4 32 53 41 54 5 0 -2 -13
-15 -29z m-2953 -96 c351 -71 647 -110 936 -122 l158 -6 -55 -60 c-114 -127
-134 -229 -95 -486 12 -74 21 -138 21 -142 0 -44 -425 135 -705 296 -213 122
-492 318 -605 424 -45 42 -51 53 -48 82 2 29 8 36 38 46 60 20 128 14 355 -32z
m3215 30 c-14 -8 -29 -14 -35 -14 -5 0 1 6 15 14 14 8 30 14 35 14 6 0 -1 -6
-15 -14z m-100 -79 c0 -2 -7 -7 -16 -10 -8 -3 -12 -2 -9 4 6 10 25 14 25 6z
m-75 -36 c-3 -5 -10 -10 -16 -10 -5 0 -9 5 -9 10 0 6 7 10 16 10 8 0 12 -4 9
-10z m-320 -50 c-3 -5 -14 -10 -23 -10 -15 0 -15 2 -2 10 20 13 33 13 25 0z
m108 -17 c-7 -2 -19 -2 -25 0 -7 3 -2 5 12 5 14 0 19 -2 13 -5z m-88 -13 c-27
-12 -43 -12 -25 0 8 5 22 9 30 9 10 0 8 -3 -5 -9z m-1455 -52 c115 -57 271
-109 405 -134 75 -14 146 -19 282 -19 175 0 181 -1 171 -19 -15 -28 -4 -157
30 -346 16 -91 29 -165 28 -166 0 0 -46 -24 -100 -53 l-100 -53 -130 7 c-246
12 -430 37 -631 86 -149 37 -161 41 -179 77 -24 46 -48 253 -44 376 3 108 4
112 37 160 36 51 121 138 130 134 4 -2 49 -24 101 -50z m1315 2 c-3 -5 -11
-10 -16 -10 -6 0 -7 5 -4 10 3 6 11 10 16 10 6 0 7 -4 4 -10z m-3312 -56 c95
-31 191 -148 225 -276 l10 -38 -38 -10 c-159 -43 -472 -56 -640 -26 -138 24
-133 22 -125 64 18 101 118 221 220 268 96 44 243 52 348 18z m-521 -418 c26
-8 92 -20 147 -27 l101 -12 0 -120 c0 -120 19 -278 44 -377 l14 -52 -38 5
c-131 17 -272 143 -321 285 -34 99 -38 312 -6 312 7 0 33 -7 59 -14z m772 -2
c12 -30 6 -180 -9 -239 -41 -156 -138 -282 -249 -324 -33 -12 -73 -21 -89 -19
-25 2 -32 10 -44 43 -23 64 -43 240 -43 378 l0 127 44 0 c51 0 252 26 306 39
54 14 77 12 84 -5z m1462 -225 c4 -7 -1 -16 -10 -21 -9 -5 -14 -13 -11 -19 4
-5 -2 -6 -11 -2 -13 5 -15 3 -9 -7 5 -9 4 -11 -3 -6 -6 4 -22 0 -34 -7 -13 -8
-43 -18 -68 -21 -40 -6 -43 -5 -30 8 19 19 140 85 157 86 6 0 15 -5 19 -11z
m1253 -66 c-6 -10 -29 -33 -51 -50 -31 -26 -49 -33 -82 -33 -39 1 -40 1 -21
16 17 14 153 84 162 84 2 0 -2 -8 -8 -17z"/>
<path d="M2250 2986 c-28 -35 11 -93 48 -70 35 22 22 84 -18 84 -10 0 -23 -7
-30 -14z"/>
<path d="M2532 2988 c-28 -28 -7 -78 33 -78 12 0 26 5 33 12 7 7 12 21 12 33
0 12 -5 26 -12 33 -7 7 -21 12 -33 12 -12 0 -26 -5 -33 -12z"/>
</g>
</svg>
